{
  "accessors": [
    {
      "bufferView": 2,
      "componentType": 5126,
      "count": 7638,
      "max": [
        2.76131272315979,
        8.287278175354004,
        15.602274894714355
      ],
      "min": [
        -2.76131272315979,
        5.917572021484375,
        13.253133773803711
      ],
      "type": "VEC3"
    },
    {
      "bufferView": 2,
      "byteOffset": 91656,
      "componentType": 5126,
      "count": 7638,
      "max": [
        0.997917890548706,
        0.957996666431427,
        0.996549665927887
      ],
      "min": [
        -0.9979596138000488,
        -0.9506356120109558,
        -0.996527910232544
      ],
      "type": "VEC3"
    },
    {
      "bufferView": 1,
      "componentType": 5126,
      "count": 7638,
      "max": [
        0.7174741625785828,
        0.8140817284584045
      ],
      "min": [
        0.2816270589828491,
        0.3026233911514282
      ],
      "type": "VEC2"
    },
    {
      "bufferView": 0,
      "componentType": 5125,
      "count": 11664,
      "type": "SCALAR"
    },
    {
      "bufferView": 2,
      "byteOffset": 183312,
      "componentType": 5126,
      "count": 9461,
      "max": [
        2.4243392944335938,
        5.932525634765625,
        5.7965192794799805
      ],
      "min": [
        -2.4243392944335938,
        -6.826728820800781,
        -18.87286376953125
      ],
      "type": "VEC3"
    },
    {
      "bufferView": 2,
      "byteOffset": 296844,
      "componentType": 5126,
      "count": 9461,
      "max": [
        0.9999962449073792,
        0.999908447265625,
        0.9999816417694092
      ],
      "min": [
        -0.9999961853027344,
        -0.999843418598175,
        -0.9999940991401672
      ],
      "type": "VEC3"
    },
    {
      "bufferView": 1,
      "byteOffset": 61104,
      "componentType": 5126,
      "count": 9461,
      "max": [
        0.9954234957695007,
        0.9871343374252319
      ],
      "min": [
        0.012938976287841797,
        0.011982666328549385
      ],
      "type": "VEC2"
    },
    {
      "bufferView": 0,
      "byteOffset": 46656,
      "componentType": 5125,
      "count": 52980,
      "type": "SCALAR"
    },
    {
      "bufferView": 2,
      "byteOffset": 410376,
      "componentType": 5126,
      "count": 1384,
      "max": [
        3.74923038482666,
        9.554458618164063,
        12.648015022277832
      ],
      "min": [
        -3.74923038482666,
        7.746819972991943,
        10.827231407165527
      ],
      "type": "VEC3"
    },
    {
      "bufferView": 2,
      "byteOffset": 426984,
      "componentType": 5126,
      "count": 1384,
      "max": [
        0.9992356300354004,
        0.9954569935798645,
        0.9981472492218018
      ],
      "min": [
        -0.9992357492446899,
        -0.995456874370575,
        -0.9981480240821838
      ],
      "type": "VEC3"
    },
    {
      "bufferView": 1,
      "byteOffset": 136792,
      "componentType": 5126,
      "count": 1384,
      "max": [
        1.0222963094711304,
        1.0262925624847412
      ],
      "min": [
        -0.023546263575553894,
        -0.01723569631576538
      ],
      "type": "VEC2"
    },
    {
      "bufferView": 0,
      "byteOffset": 258576,
      "componentType": 5125,
      "count": 8280,
      "type": "SCALAR"
    }
  ],
  "asset": {
    "extras": {
      "author": "Julian Johnson-Mortimer (https://sketchfab.com/FreddyFoxFreddy)",
      "license": "CC-BY-4.0 (http://creativecommons.org/licenses/by/4.0/)",
      "source": "https://sketchfab.com/3d-models/piranha-cde3fbf23ed64366b5eb953a0bb27510",
      "title": "Piranha"
    },
    "generator": "Sketchfab-12.67.0",
    "version": "2.0"
  },
  "bufferViews": [
    {
      "buffer": 0,
      "byteLength": 291696,
      "name": "floatBufferViews",
      "target": 34963
    },
    {
      "buffer": 0,
      "byteLength": 147864,
      "byteOffset": 291696,
      "byteStride": 8,
      "name": "floatBufferViews",
      "target": 34962
    },
    {
      "buffer": 0,
      "byteLength": 443592,
      "byteOffset": 439560,
      "byteStride": 12,
      "name": "floatBufferViews",
      "target": 34962
    }
  ],
  "buffers": [
    {
      "byteLength": 883152,
      "uri": "scene.bin"
    }
  ],
  "images": [
    {
      "uri": "textures/teeth_baseColor.jpeg"
    },
    {
      "uri": "textures/body_baseColor.png"
    },
    {
      "uri": "textures/body_metallicRoughness.png"
    },
    {
      "uri": "textures/body_emissive.jpeg"
    },
    {
      "uri": "textures/material_baseColor.jpeg"
    }
  ],
  "materials": [
    {
      "doubleSided": true,
      "name": "teeth",
      "pbrMetallicRoughness": {
        "baseColorTexture": {
          "index": 0
        },
        "metallicFactor": 0.0,
        "roughnessFactor": 0.024390243902439025
      }
    },
    {
      "alphaMode": "BLEND",
      "doubleSided": true,
      "emissiveFactor": [
        0.9146341463,
        0.9146341463,
        0.9146341463
      ],
      "emissiveTexture": {
        "index": 3
      },
      "name": "body",
      "occlusionTexture": {
        "index": 2
      },
      "pbrMetallicRoughness": {
        "baseColorTexture": {
          "index": 1
        },
        "metallicFactor": 0.0,
        "metallicRoughnessTexture": {
          "index": 2
        },
        "roughnessFactor": 0.1097560976
      }
    },
    {
      "doubleSided": true,
      "name": "material",
      "pbrMetallicRoughness": {
        "baseColorFactor": [
          0.7439024390243902,
          0.7439024390243902,
          0.7439024390243902,
          1.0
        ],
        "baseColorTexture": {
          "index": 4
        },
        "metallicFactor": 0.0,
        "roughnessFactor": 0.0
      }
    }
  ],
  "meshes": [
    {
      "name": "teeth1_teeth_0",
      "primitives": [
        {
          "attributes": {
            "NORMAL": 1,
            "POSITION": 0,
            "TEXCOORD_0": 2
          },
          "indices": 3,
          "material": 0,
          "mode": 4
        }
      ]
    },
    {
      "name": "base_body_0",
      "primitives": [
        {
          "attributes": {
            "NORMAL": 5,
            "POSITION": 4,
            "TEXCOORD_0": 6
          },
          "indices": 7,
          "material": 1,
          "mode": 4
        }
      ]
    },
    {
      "name": "eye1_eye_0",
      "primitives": [
        {
          "attributes": {
            "NORMAL": 9,
            "POSITION": 8,
            "TEXCOORD_0": 10
          },
          "indices": 11,
          "material": 2,
          "mode": 4
        }
      ]
    }
  ],
  "nodes": [
    {
      "children": [
        1
      ],
      "matrix": [
        1.0,
        0.0,
        0.0,
        0.0,
        0.0,
        2.220446049250313e-16,
        -1.0,
        0.0,
        0.0,
        1.0,
        2.220446049250313e-16,
        0.0,
        0.0,
        0.0,
        0.0,
        1.0
      ],
      "name": "Sketchfab_model"
    },
    {
      "children": [
        2
      ],
      "matrix": [
        1.0,
        0.0,
        0.0,
        0.0,
        0.0,
        0.0,
        1.0,
        0.0,
        0.0,
        -1.0,
        0.0,
        0.0,
        0.0,
        0.0,
        0.0,
        1.0
      ],
      "name": "7f096f5524af424db7900aa7c961ba0d.fbx"
    },
    {
      "children": [
        3,
        5,
        7
      ],
      "name": "RootNode"
    },
    {
      "children": [
        4
      ],
      "matrix": [
        0.009999999776482582,
        0.0,
        0.0,
        0.0,
        0.0,
        0.009999999776482582,
        0.0,
        0.0,
        0.0,
        0.0,
        0.009999999776482582,
        0.0,
        0.0,
        0.0,
        0.0,
        1.0
      ],
      "name": "teeth1"
    },
    {
      "mesh": 0,
      "name": "teeth1_teeth_0"
    },
    {
      "children": [
        6
      ],
      "matrix": [
        0.0204203762114048,
        0.0,
        0.0,
        0.0,
        0.0,
        0.0204203762114048,
        0.0,
        0.0,
        0.0,
        0.0,
        0.0204203762114048,
        0.0,
        -2.220446049250313e-16,
        0.07663225382566452,
        0.04433386027812958,
        1.0
      ],
      "name": "base"
    },
    {
      "mesh": 1,
      "name": "base_body_0"
    },
    {
      "children": [
        8
      ],
      "matrix": [
        0.009999999776482582,
        0.0,
        0.0,
        0.0,
        0.0,
        0.009999999776482582,
        0.0,
        0.0,
        0.0,
        0.0,
        0.009999999776482582,
        0.0,
        0.0,
        0.0,
        0.0,
        1.0
      ],
      "name": "eye1"
    },
    {
      "mesh": 2,
      "name": "eye1_eye_0"
    }
  ],
  "samplers": [
    {
      "magFilter": 9729,
      "minFilter": 9987,
      "wrapS": 10497,
      "wrapT": 10497
    }
  ],
  "scene": 0,
  "scenes": [
    {
      "name": "Sketchfab_Scene",
      "nodes": [
        0
      ]
    }
  ],
  "textures": [
    {
      "sampler": 0,
      "source": 0
    },
    {
      "sampler": 0,
      "source": 1
    },
    {
      "sampler": 0,
      "source": 2
    },
    {
      "sampler": 0,
      "source": 3
    },
    {
      "sampler": 0,
      "source": 4
    }
  ]
}
