{
  "accessors": [
    {
      "bufferView": 2,
      "componentType": 5126,
      "count": 2893,
      "max": [
        1.2413729429244995,
        0.5769249796867371,
        0.9091479778289795
      ],
      "min": [
        -1.2370330095291138,
        -0.554872989654541,
        -1.093364953994751
      ],
      "type": "VEC3"
    },
    {
      "bufferView": 2,
      "byteOffset": 34716,
      "componentType": 5126,
      "count": 2893,
      "max": [
        0.9899095296859741,
        0.9999279975891113,
        0.9996941685676575
      ],
      "min": [
        -0.9997319579124451,
        -0.9992318153381348,
        -0.9963583946228027
      ],
      "type": "VEC3"
    },
    {
      "bufferView": 3,
      "componentType": 5126,
      "count": 2893,
      "max": [
        0.9726138114929199,
        0.9998346567153931,
        0.9962328672409058,
        1.0
      ],
      "min": [
        -0.9948023557662964,
        -0.9995494484901428,
        -0.9983920454978943,
        1.0
      ],
      "type": "VEC4"
    },
    {
      "bufferView": 1,
      "componentType": 5126,
      "count": 2893,
      "max": [
        0.9921000003814697,
        0.9980000257492065
      ],
      "min": [
        0.0019000000320374966,
        0.0019000000320374966
      ],
      "type": "VEC2"
    },
    {
      "bufferView": 0,
      "componentType": 5125,
      "count": 15810,
      "type": "SCALAR"
    }
  ],
  "asset": {
    "extras": {
      "author": "PeterMikielewicz (https://sketchfab.com/PeterMikielewicz)",
      "license": "CC-BY-4.0 (http://creativecommons.org/licenses/by/4.0/)",
      "source": "https://sketchfab.com/3d-models/asteroid-with-minerals-1cf93f26dbc34a08a31367ea8929117f",
      "title": "Asteroid with minerals"
    },
    "generator": "Sketchfab-12.63.0",
    "version": "2.0"
  },
  "bufferViews": [
    {
      "buffer": 0,
      "byteLength": 63240,
      "name": "floatBufferViews",
      "target": 34963
    },
    {
      "buffer": 0,
      "byteLength": 23144,
      "byteOffset": 63240,
      "byteStride": 8,
      "name": "floatBufferViews",
      "target": 34962
    },
    {
      "buffer": 0,
      "byteLength": 69432,
      "byteOffset": 86384,
      "byteStride": 12,
      "name": "floatBufferViews",
      "target": 34962
    },
    {
      "buffer": 0,
      "byteLength": 46288,
      "byteOffset": 155816,
      "byteStride": 16,
      "name": "floatBufferViews",
      "target": 34962
    }
  ],
  "buffers": [
    {
      "byteLength": 202104,
      "uri": "scene.bin"
    }
  ],
  "images": [
    {
      "uri": "textures/defaultMat.003_baseColor.jpeg"
    },
    {
      "uri": "textures/defaultMat.003_metallicRoughness.png"
    },
    {
      "uri": "textures/defaultMat.003_emissive.jpeg"
    },
    {
      "uri": "textures/defaultMat.003_normal.jpeg"
    }
  ],
  "materials": [
    {
      "doubleSided": true,
      "emissiveFactor": [
        1.0,
        1.0,
        1.0
      ],
      "emissiveTexture": {
        "index": 2
      },
      "name": "defaultMat.003",
      "normalTexture": {
        "index": 3
      },
      "occlusionTexture": {
        "index": 1
      },
      "pbrMetallicRoughness": {
        "baseColorTexture": {
          "index": 0
        },
        "metallicRoughnessTexture": {
          "index": 1
        }
      }
    }
  ],
  "meshes": [
    {
      "name": "Object_0",
      "primitives": [
        {
          "attributes": {
            "NORMAL": 1,
            "POSITION": 0,
            "TANGENT": 2,
            "TEXCOORD_0": 3
          },
          "indices": 4,
          "material": 0,
          "mode": 4
        }
      ]
    }
  ],
  "nodes": [
    {
      "children": [
        1
      ],
      "matrix": [
        1.0,
        0.0,
        0.0,
        0.0,
        0.0,
        2.220446049250313e-16,
        -1.0,
        0.0,
        0.0,
        1.0,
        2.220446049250313e-16,
        0.0,
        0.0,
        0.0,
        0.0,
        1.0
      ],
      "name": "Sketchfab_model"
    },
    {
      "children": [
        2
      ],
      "name": "383e05c430874c8e923a0cebc5ede96c.obj.cleaner.materialmerger.gles"
    },
    {
      "mesh": 0,
      "name": "Object_2"
    }
  ],
  "samplers": [
    {
      "magFilter": 9729,
      "minFilter": 9987,
      "wrapS": 10497,
      "wrapT": 10497
    }
  ],
  "scene": 0,
  "scenes": [
    {
      "name": "Sketchfab_Scene",
      "nodes": [
        0
      ]
    }
  ],
  "textures": [
    {
      "sampler": 0,
      "source": 0
    },
    {
      "sampler": 0,
      "source": 1
    },
    {
      "sampler": 0,
      "source": 2
    },
    {
      "sampler": 0,
      "source": 3
    }
  ]
}
