{
  "accessors": [
    {
      "bufferView": 2,
      "componentType": 5126,
      "count": 65532,
      "max": [
        41.50115203857422,
        71.3697280883789,
        26.156526565551758
      ],
      "min": [
        -67.21033477783203,
        -50.341102600097656,
        17.143224716186523
      ],
      "type": "VEC3"
    },
    {
      "bufferView": 2,
      "byteOffset": 786384,
      "componentType": 5126,
      "count": 65532,
      "max": [
        0.9999160170555115,
        0.9999744296073914,
        0.9999998807907104
      ],
      "min": [
        -0.9999947547912598,
        -0.9999739527702332,
        -0.999998152256012
      ],
      "type": "VEC3"
    },
    {
      "bufferView": 1,
      "componentType": 5126,
      "count": 65532,
      "max": [
        0.9999420046806335,
        0.9988250136375427
      ],
      "min": [
        0.0,
        0.0
      ],
      "type": "VEC2"
    },
    {
      "bufferView": 0,
      "componentType": 5125,
      "count": 325404,
      "type": "SCALAR"
    },
    {
      "bufferView": 2,
      "byteOffset": 1572768,
      "componentType": 5126,
      "count": 65532,
      "max": [
        44.302162170410156,
        84.88947296142578,
        25.801923751831055
      ],
      "min": [
        -88.1151351928711,
        -50.032981872558594,
        17.130796432495117
      ],
      "type": "VEC3"
    },
    {
      "bufferView": 2,
      "byteOffset": 2359152,
      "componentType": 5126,
      "count": 65532,
      "max": [
        0.9998723268508911,
        0.9997184872627258,
        1.0
      ],
      "min": [
        -0.9998239278793335,
        -0.9998853802680969,
        -0.9999977946281433
      ],
      "type": "VEC3"
    },
    {
      "bufferView": 1,
      "byteOffset": 524256,
      "componentType": 5126,
      "count": 65532,
      "max": [
        0.9997079968452454,
        0.9971609711647034
      ],
      "min": [
        2.8000000384054147e-05,
        5.400000009103678e-05
      ],
      "type": "VEC2"
    },
    {
      "bufferView": 0,
      "byteOffset": 1301616,
      "componentType": 5125,
      "count": 345897,
      "type": "SCALAR"
    },
    {
      "bufferView": 2,
      "byteOffset": 3145536,
      "componentType": 5126,
      "count": 65532,
      "max": [
        41.790489196777344,
        62.34368896484375,
        26.165311813354492
      ],
      "min": [
        -70.21711730957031,
        -50.11271667480469,
        17.129505157470703
      ],
      "type": "VEC3"
    },
    {
      "bufferView": 2,
      "byteOffset": 3931920,
      "componentType": 5126,
      "count": 65532,
      "max": [
        0.9999958276748657,
        0.9999935030937195,
        1.0
      ],
      "min": [
        -0.9999946355819702,
        -0.9999716877937317,
        -0.9999526739120483
      ],
      "type": "VEC3"
    },
    {
      "bufferView": 1,
      "byteOffset": 1048512,
      "componentType": 5126,
      "count": 65532,
      "max": [
        0.9998970031738281,
        0.9985849857330322
      ],
      "min": [
        0.0,
        0.000534999999217689
      ],
      "type": "VEC2"
    },
    {
      "bufferView": 0,
      "byteOffset": 2685204,
      "componentType": 5125,
      "count": 313869,
      "type": "SCALAR"
    },
    {
      "bufferView": 2,
      "byteOffset": 4718304,
      "componentType": 5126,
      "count": 65532,
      "max": [
        35.21406173706055,
        84.72476196289063,
        26.170047760009766
      ],
      "min": [
        -87.9124984741211,
        -28.96411895751953,
        17.323017120361328
      ],
      "type": "VEC3"
    },
    {
      "bufferView": 2,
      "byteOffset": 5504688,
      "componentType": 5126,
      "count": 65532,
      "max": [
        0.9999850392341614,
        0.9999681115150452,
        0.9999998211860657
      ],
      "min": [
        -0.9999906420707703,
        -0.9999646544456482,
        -0.9999539256095886
      ],
      "type": "VEC3"
    },
    {
      "bufferView": 1,
      "byteOffset": 1572768,
      "componentType": 5126,
      "count": 65532,
      "max": [
        1.0,
        0.9987260103225708
      ],
      "min": [
        0.0,
        0.0
      ],
      "type": "VEC2"
    },
    {
      "bufferView": 0,
      "byteOffset": 3940680,
      "componentType": 5125,
      "count": 302316,
      "type": "SCALAR"
    },
    {
      "bufferView": 2,
      "byteOffset": 6291072,
      "componentType": 5126,
      "count": 65532,
      "max": [
        33.918846130371094,
        84.37145233154297,
        26.176921844482422
      ],
      "min": [
        -87.24928283691406,
        -41.84583282470703,
        17.153005599975586
      ],
      "type": "VEC3"
    },
    {
      "bufferView": 2,
      "byteOffset": 7077456,
      "componentType": 5126,
      "count": 65532,
      "max": [
        0.9998826384544373,
        0.9998924732208252,
        1.0
      ],
      "min": [
        -0.9999926090240479,
        -0.999993085861206,
        -0.9999998807907104
      ],
      "type": "VEC3"
    },
    {
      "bufferView": 1,
      "byteOffset": 2097024,
      "componentType": 5126,
      "count": 65532,
      "max": [
        1.0,
        1.0
      ],
      "min": [
        0.0,
        0.0
      ],
      "type": "VEC2"
    },
    {
      "bufferView": 0,
      "byteOffset": 5149944,
      "componentType": 5125,
      "count": 209442,
      "type": "SCALAR"
    },
    {
      "bufferView": 2,
      "byteOffset": 7863840,
      "componentType": 5126,
      "count": 1000,
      "max": [
        -17.880638122558594,
        58.30897521972656,
        24.088062286376953
      ],
      "min": [
        -33.88039779663086,
        -1.5260900259017944,
        18.197635650634766
      ],
      "type": "VEC3"
    },
    {
      "bufferView": 2,
      "byteOffset": 7875840,
      "componentType": 5126,
      "count": 1000,
      "max": [
        0.9997580647468567,
        0.9929599761962891,
        0.9999967217445374
      ],
      "min": [
        -0.9959322214126587,
        -0.9887040853500366,
        -0.9980703592300415
      ],
      "type": "VEC3"
    },
    {
      "bufferView": 1,
      "byteOffset": 2621280,
      "componentType": 5126,
      "count": 1000,
      "max": [
        1.0,
        0.9979239702224731
      ],
      "min": [
        0.06901200115680695,
        0.0021200000774115324
      ],
      "type": "VEC2"
    },
    {
      "bufferView": 0,
      "byteOffset": 5987712,
      "componentType": 5125,
      "count": 3072,
      "type": "SCALAR"
    }
  ],
  "asset": {
    "extras": {
      "author": "Guilherme Francisco Zucatelli (https://sketchfab.com/gfzucatelli)",
      "license": "CC-BY-NC-4.0 (http://creativecommons.org/licenses/by-nc/4.0/)",
      "source": "https://sketchfab.com/3d-models/fotovoltaica-ufsc-3ae4ea3c6d574be79b5a88424945a9f4",
      "title": "FOTOVOLTAICA - UFSC"
    },
    "generator": "Sketchfab-12.68.0",
    "version": "2.0"
  },
  "bufferViews": [
    {
      "buffer": 0,
      "byteLength": 6000000,
      "name": "floatBufferViews",
      "target": 34963
    },
    {
      "buffer": 0,
      "byteLength": 2629280,
      "byteOffset": 6000000,
      "byteStride": 8,
      "name": "floatBufferViews",
      "target": 34962
    },
    {
      "buffer": 0,
      "byteLength": 7887840,
      "byteOffset": 8629280,
      "byteStride": 12,
      "name": "floatBufferViews",
      "target": 34962
    }
  ],
  "buffers": [
    {
      "byteLength": 16517120,
      "uri": "scene.bin"
    }
  ],
  "images": [
    {
      "uri": "textures/mat-0_baseColor.jpeg"
    }
  ],
  "materials": [
    {
      "doubleSided": true,
      "name": "mat-0",
      "pbrMetallicRoughness": {
        "baseColorTexture": {
          "index": 0
        },
        "metallicFactor": 0.0
      }
    }
  ],
  "meshes": [
    {
      "name": "mat-0",
      "primitives": [
        {
          "attributes": {
            "NORMAL": 1,
            "POSITION": 0,
            "TEXCOORD_0": 2
          },
          "indices": 3,
          "material": 0,
          "mode": 4
        }
      ]
    },
    {
      "name": "mat-0",
      "primitives": [
        {
          "attributes": {
            "NORMAL": 5,
            "POSITION": 4,
            "TEXCOORD_0": 6
          },
          "indices": 7,
          "material": 0,
          "mode": 4
        }
      ]
    },
    {
      "name": "mat-0",
      "primitives": [
        {
          "attributes": {
            "NORMAL": 9,
            "POSITION": 8,
            "TEXCOORD_0": 10
          },
          "indices": 11,
          "material": 0,
          "mode": 4
        }
      ]
    },
    {
      "name": "mat-0",
      "primitives": [
        {
          "attributes": {
            "NORMAL": 13,
            "POSITION": 12,
            "TEXCOORD_0": 14
          },
          "indices": 15,
          "material": 0,
          "mode": 4
        }
      ]
    },
    {
      "name": "mat-0",
      "primitives": [
        {
          "attributes": {
            "NORMAL": 17,
            "POSITION": 16,
            "TEXCOORD_0": 18
          },
          "indices": 19,
          "material": 0,
          "mode": 4
        }
      ]
    },
    {
      "name": "mat-0",
      "primitives": [
        {
          "attributes": {
            "NORMAL": 21,
            "POSITION": 20,
            "TEXCOORD_0": 22
          },
          "indices": 23,
          "material": 0,
          "mode": 4
        }
      ]
    }
  ],
  "nodes": [
    {
      "children": [
        1
      ],
      "matrix": [
        1.0,
        0.0,
        0.0,
        0.0,
        0.0,
        2.220446049250313e-16,
        -1.0,
        0.0,
        0.0,
        1.0,
        2.220446049250313e-16,
        0.0,
        0.0,
        0.0,
        0.0,
        1.0
      ],
      "name": "Sketchfab_model"
    },
    {
      "children": [
        2
      ],
      "name": "Collada visual scene group"
    },
    {
      "children": [
        3,
        4,
        5,
        6,
        7,
        8
      ],
      "name": "mesh1"
    },
    {
      "mesh": 0,
      "name": "mat-0"
    },
    {
      "mesh": 1,
      "name": "mat-0"
    },
    {
      "mesh": 2,
      "name": "mat-0"
    },
    {
      "mesh": 3,
      "name": "mat-0"
    },
    {
      "mesh": 4,
      "name": "mat-0"
    },
    {
      "mesh": 5,
      "name": "mat-0"
    }
  ],
  "samplers": [
    {
      "magFilter": 9729,
      "minFilter": 9987,
      "wrapS": 10497,
      "wrapT": 10497
    }
  ],
  "scene": 0,
  "scenes": [
    {
      "name": "Sketchfab_Scene",
      "nodes": [
        0
      ]
    }
  ],
  "textures": [
    {
      "sampler": 0,
      "source": 0
    }
  ]
}
