{
  "accessors": [
    {
      "bufferView": 2,
      "componentType": 5126,
      "count": 65532,
      "max": [
        0.39513498544692993,
        0.9511169791221619,
        0.17281800508499146
      ],
      "min": [
        -0.2615030109882355,
        -0.962863028049469,
        -0.23226499557495117
      ],
      "type": "VEC3"
    },
    {
      "bufferView": 2,
      "byteOffset": 786384,
      "componentType": 5126,
      "count": 65532,
      "max": [
        0.9999987483024597,
        0.9944097399711609,
        0.999945342540741
      ],
      "min": [
        -0.9999896287918091,
        -0.9998587369918823,
        -0.9999043345451355
      ],
      "type": "VEC3"
    },
    {
      "bufferView": 3,
      "componentType": 5126,
      "count": 65532,
      "max": [
        0.9999600052833557,
        0.99993497133255,
        0.9999740123748779,
        1.0
      ],
      "min": [
        -0.9999960064888,
        -0.9999949932098389,
        -0.9999200105667114,
        -1.0
      ],
      "type": "VEC4"
    },
    {
      "bufferView": 1,
      "componentType": 5126,
      "count": 65532,
      "max": [
        30.915700912475586,
        47.373199462890625
      ],
      "min": [
        -28.2460994720459,
        -46.041099548339844
      ],
      "type": "VEC2"
    },
    {
      "bufferView": 0,
      "componentType": 5125,
      "count": 315696,
      "type": "SCALAR"
    },
    {
      "bufferView": 2,
      "byteOffset": 1572768,
      "componentType": 5126,
      "count": 55730,
      "max": [
        0.3488120138645172,
        1.0,
        0.2703459858894348
      ],
      "min": [
        -0.39513498544692993,
        -1.0,
        -0.2703459858894348
      ],
      "type": "VEC3"
    },
    {
      "bufferView": 2,
      "byteOffset": 2241528,
      "componentType": 5126,
      "count": 55730,
      "max": [
        0.9999967813491821,
        1.0,
        0.999993622303009
      ],
      "min": [
        -0.9998846650123596,
        -1.0,
        -0.9999898672103882
      ],
      "type": "VEC3"
    },
    {
      "bufferView": 3,
      "byteOffset": 1048512,
      "componentType": 5126,
      "count": 55730,
      "max": [
        1.0,
        0.9999960064888,
        0.9999539852142334,
        1.0
      ],
      "min": [
        -0.9999849796295166,
        -0.9999920129776001,
        -0.9998779892921448,
        -1.0
      ],
      "type": "VEC4"
    },
    {
      "bufferView": 1,
      "byteOffset": 524256,
      "componentType": 5126,
      "count": 55730,
      "max": [
        41.438499450683594,
        41.030601501464844
      ],
      "min": [
        -21.002599716186523,
        -46.81650161743164
      ],
      "type": "VEC2"
    },
    {
      "bufferView": 0,
      "byteOffset": 1262784,
      "componentType": 5125,
      "count": 267036,
      "type": "SCALAR"
    }
  ],
  "asset": {
    "extras": {
      "author": "DigitalFlow (https://sketchfab.com/DigitalFlow)",
      "license": "CC-BY-4.0 (http://creativecommons.org/licenses/by/4.0/)",
      "source": "https://sketchfab.com/3d-models/wheat-22fc307dabed485e8a53b6a3543842f8",
      "title": "Wheat"
    },
    "generator": "Sketchfab-12.65.0",
    "version": "2.0"
  },
  "bufferViews": [
    {
      "buffer": 0,
      "byteLength": 2330928,
      "name": "floatBufferViews",
      "target": 34963
    },
    {
      "buffer": 0,
      "byteLength": 970096,
      "byteOffset": 2330928,
      "byteStride": 8,
      "name": "floatBufferViews",
      "target": 34962
    },
    {
      "buffer": 0,
      "byteLength": 2910288,
      "byteOffset": 3301024,
      "byteStride": 12,
      "name": "floatBufferViews",
      "target": 34962
    },
    {
      "buffer": 0,
      "byteLength": 1940192,
      "byteOffset": 6211312,
      "byteStride": 16,
      "name": "floatBufferViews",
      "target": 34962
    }
  ],
  "buffers": [
    {
      "byteLength": 8151504,
      "uri": "scene.bin"
    }
  ],
  "images": [
    {
      "uri": "textures/Material__26_baseColor.jpeg"
    },
    {
      "uri": "textures/Material__26_metallicRoughness.png"
    },
    {
      "uri": "textures/Material__26_normal.png"
    }
  ],
  "materials": [
    {
      "doubleSided": true,
      "name": "Material__26",
      "normalTexture": {
        "index": 2
      },
      "occlusionTexture": {
        "index": 1
      },
      "pbrMetallicRoughness": {
        "baseColorTexture": {
          "index": 0
        },
        "metallicRoughnessTexture": {
          "index": 1
        },
        "roughnessFactor": 0.7395198170731707
      }
    }
  ],
  "meshes": [
    {
      "name": "defaultMaterial",
      "primitives": [
        {
          "attributes": {
            "NORMAL": 1,
            "POSITION": 0,
            "TANGENT": 2,
            "TEXCOORD_0": 3
          },
          "indices": 4,
          "material": 0,
          "mode": 4
        }
      ]
    },
    {
      "name": "defaultMaterial",
      "primitives": [
        {
          "attributes": {
            "NORMAL": 6,
            "POSITION": 5,
            "TANGENT": 7,
            "TEXCOORD_0": 8
          },
          "indices": 9,
          "material": 0,
          "mode": 4
        }
      ]
    }
  ],
  "nodes": [
    {
      "children": [
        1
      ],
      "matrix": [
        1.0,
        0.0,
        0.0,
        0.0,
        0.0,
        2.220446049250313e-16,
        -1.0,
        0.0,
        0.0,
        1.0,
        2.220446049250313e-16,
        0.0,
        0.0,
        0.0,
        0.0,
        1.0
      ],
      "name": "Sketchfab_model"
    },
    {
      "children": [
        2
      ],
      "matrix": [
        1.0,
        0.0,
        0.0,
        0.0,
        0.0,
        -4.371139006309477e-08,
        0.999999999999999,
        0.0,
        0.0,
        -0.999999999999999,
        -4.371139006309477e-08,
        0.0,
        0.0,
        0.0,
        0.0,
        1.0
      ],
      "name": "Collada visual scene group"
    },
    {
      "children": [
        3,
        4
      ],
      "name": "Cylinder005"
    },
    {
      "mesh": 0,
      "name": "defaultMaterial"
    },
    {
      "mesh": 1,
      "name": "defaultMaterial"
    }
  ],
  "samplers": [
    {
      "magFilter": 9729,
      "minFilter": 9987,
      "wrapS": 10497,
      "wrapT": 10497
    }
  ],
  "scene": 0,
  "scenes": [
    {
      "name": "Sketchfab_Scene",
      "nodes": [
        0
      ]
    }
  ],
  "textures": [
    {
      "sampler": 0,
      "source": 0
    },
    {
      "sampler": 0,
      "source": 1
    },
    {
      "sampler": 0,
      "source": 2
    }
  ]
}
